<?xml version="1.0" encoding="UTF-8"?>
<svg width="280px" height="41px" viewBox="0 0 280 41" version="1.1" xmlns="http://www.w3.org/2000/svg" xmlns:xlink="http://www.w3.org/1999/xlink">
    <!-- Generator: Sketch 52.5 (67469) - http://www.bohemiancoding.com/sketch -->
    <title>logo</title>
    <desc>Created with Sketch.</desc>
    <g id="Page-1" stroke="none" stroke-width="1" fill="none" fill-rule="evenodd">
        <g id="00登录" transform="translate(-482.000000, -253.000000)">
            <g id="登录" transform="translate(440.000000, 205.000000)">
                <g id="logo" transform="translate(42.000000, 48.000000)">
                    <path d="M269.446427,12.0704367 L267.998794,9.39810111 L270.906387,9.39810111 C271.547304,10.3973464 272.165446,11.2881197 272.760824,12.0704367 L278.687393,12.0704367 C279.178663,12.0704367 279.547111,12.2009067 279.792746,12.4618505 C279.976972,12.7227943 280.03838,13.0489692 279.976972,13.440385 L278.871618,20.877247 L263.5809,20.877247 C262.414132,25.7699439 261.370198,29.3252502 260.449066,31.5432728 L257.501458,31.5432728 L260.817517,21.1708074 C261.247379,18.8875488 261.585122,15.8541223 261.830757,12.0704367 L269.446427,12.0704367 Z M70.0481616,9.72128506 C69.475529,11.8646112 68.6484055,13.748112 67.5667662,15.3718439 L65.2762473,32.03125 L62.8902902,32.03125 L64.7036176,19.1713575 C64.0673592,19.755901 63.2402357,20.3729099 62.2222222,21.0224027 L62.7948519,17.4177358 C63.3038587,17.0280402 63.8446702,16.4759796 64.4173028,15.7615376 C64.9263095,15.0470955 65.4671211,14.1378193 66.0397536,13.0336816 C66.6123862,11.9295439 67.025948,10.8254228 67.2804513,9.72128506 L70.0481616,9.72128506 Z M78.3282189,11.6864766 L85.3546205,11.6864766 L85.1350455,14.2909646 L69.1060669,14.2909646 L69.3256419,11.6864766 L76.0592768,11.6864766 L75.76651,8.96875 L78.0354522,8.96875 L78.3282189,11.6864766 Z M83.1425804,18.1373505 L69.8895082,18.1373505 L70.2154034,16.0824281 L83.4684756,16.0824281 L83.1425804,18.1373505 Z M82.6481578,21.757928 L69.3950856,21.757928 L69.7209808,19.7030056 L82.974053,19.7030056 L82.6481578,21.757928 Z M82.2808233,31.9803882 L68.2594889,31.9803882 L69.1886135,23.3585104 L81.5206305,23.3585104 C82.14005,23.3585104 82.5623751,23.5078055 82.7876185,23.8064002 C82.9565511,24.1796435 82.9847061,24.8141476 82.8720844,25.7099316 L82.2808233,31.9803882 Z M71.1313285,25.5979592 L70.7089991,29.7409394 L80.3381083,29.7409394 L80.5915059,26.0458489 C80.6478168,25.7472543 80.5633517,25.5979592 80.3381083,25.5979592 L71.1313285,25.5979592 Z M93.0378062,22.9321694 L94.718843,11.2876091 L100.651914,11.2876091 C101.113377,10.5047776 101.442989,9.81981036 101.640759,9.23268674 L104.805064,9.23268674 C104.607294,9.7545744 104.277682,10.4395417 103.816219,11.2876091 L110.441481,11.2876091 C111.034791,11.2876091 111.430325,11.4180791 111.628095,11.6790229 C111.825865,11.9399668 111.891788,12.3639941 111.825864,12.9511178 L110.441481,22.9321694 L93.0378062,22.9321694 Z M108.760444,13.3425315 L97.1909559,13.3425315 L96.9931869,14.5167729 L108.760444,14.5167729 L108.958213,13.5382384 C108.958213,13.4077665 108.892291,13.3425315 108.760444,13.3425315 Z M96.5976488,17.6480832 L108.364906,17.6480832 L108.562675,16.3759884 L96.6965333,16.3759884 L96.5976488,17.6480832 Z M96.1032262,20.877247 L107.870484,20.877247 L108.068253,19.6051522 L96.3009953,19.6051522 L96.1032262,20.877247 Z M101.838528,27.9226953 C101.442988,26.6179761 101.047454,25.215424 100.651914,23.714997 L103.222911,23.714997 C103.684375,25.0849521 104.244715,26.4875042 104.903948,27.9226953 L101.838528,27.9226953 Z M99.3664153,24.2042642 L98.3775701,29.5862039 L107.57383,29.5862039 L106.881639,31.7389797 L95.1143811,31.7389797 L96.5976488,24.2042642 L99.3664153,24.2042642 Z M92.5433836,24.6935315 L95.4110346,24.6935315 C94.4881078,26.6506102 93.4333502,28.5750421 92.2467301,30.4668849 L88.983541,30.4668849 C90.6316246,28.0531545 91.8182269,26.1287226 92.5433836,24.6935315 Z M109.254867,24.6935315 C110.177794,26.5201383 111.19959,28.4445702 112.320287,30.4668849 L109.057098,30.4668849 C108.068248,28.2488623 107.211257,26.3244304 106.4861,24.6935315 L109.254867,24.6935315 Z M126.618988,12.9511178 L123.256915,12.9511178 C122.268064,11.3854548 121.509957,10.1459902 120.982571,9.23268674 L123.949106,9.23268674 C124.872033,10.5374059 125.761985,11.7768705 126.618988,12.9511178 Z M141.649435,11.3854626 C141.649435,11.8421143 141.51759,12.3966116 141.253897,13.0489712 C140.92428,13.8970387 140.594668,14.6472409 140.265051,15.2996005 L137.298516,15.2996005 C137.694056,14.582005 138.056629,13.8644202 138.386246,13.1468246 C138.452169,12.9511168 138.386247,12.8532643 138.188477,12.8532643 L130.772138,12.8532643 C130.178828,14.0275116 129.618488,15.0712712 129.091101,15.9845746 L125.729027,15.9845746 C127.377111,13.5056082 128.596674,11.2550014 129.387755,9.23268674 L132.35429,9.23268674 L131.760983,10.7004885 L140.46282,10.7004885 C141.2539,10.7004885 141.649435,10.9288109 141.649435,11.3854626 Z M134.134211,15.7888677 L136.210786,15.7888677 C138.122563,17.5502386 139.7047,18.9201732 140.957243,19.8987125 L137.199631,19.8987125 C136.738168,19.3768249 136.111906,18.6918576 135.320826,17.8437901 C134.463822,17.0609586 133.936443,16.5390788 133.738673,16.278135 C133.145363,16.9957305 132.48614,17.6480803 131.760983,18.2352039 C131.035826,18.8875635 130.376603,19.3768259 129.783293,19.7030056 L125.13572,19.7030056 C126.586034,19.115882 127.838559,18.4309147 128.893332,17.6480832 C129.948105,16.9304877 130.772135,16.1802854 131.365445,15.3974539 C131.958755,14.6798584 132.354289,14.0601261 132.552059,13.5382384 L135.617479,13.5382384 C135.353786,14.1253621 134.859368,14.8755643 134.134211,15.7888677 Z M126.520104,13.7339453 C125.06979,16.0172039 123.685421,17.9416358 122.366954,19.5072988 L118.807111,19.5072988 C119.664115,18.6592313 120.521105,17.7133241 121.378109,16.6695488 C122.169189,15.6257734 122.861373,14.6472487 123.454684,13.7339453 L126.520104,13.7339453 Z M134.529749,28.5098159 L135.518595,23.1278763 C135.518595,22.8669325 135.38675,22.7364625 135.123057,22.7364625 L123.949106,22.7364625 L122.960261,28.9012297 L120.191494,28.9012297 L121.575878,20.5836867 L136.50744,20.5836867 C137.29852,20.5836867 137.825899,20.7141566 138.089592,20.9751005 C138.353285,21.3012803 138.419208,21.8231601 138.287361,22.5407556 L137.298516,28.5098159 L134.529749,28.5098159 Z M129.882177,26.8463073 L131.464329,26.8463073 C133.376106,28.2814984 135.947078,29.9123729 139.177322,31.7389797 L134.430865,31.7389797 C133.046475,30.8256763 131.299532,29.4883592 129.189986,27.7269884 C127.871519,29.1621794 125.827926,30.4994965 123.059145,31.7389797 L117.224959,31.7389797 C121.905516,30.2385527 125.036828,28.5424432 126.618988,26.6506004 C126.948605,26.3244206 127.278217,25.9003933 127.607833,25.3785056 C127.871527,24.9218539 128.069294,24.2695041 128.20114,23.4214367 L131.167676,23.4214367 C131.035829,23.9433243 130.871023,24.5304391 130.673253,25.1827987 C130.40956,25.9003943 130.14587,26.4548916 129.882177,26.8463073 Z M152.541086,14.2755078 L149.993892,14.2755078 L147.956137,9.14426984 L150.333518,9.14426984 L152.541086,14.2755078 Z M151.692022,20.8869105 L149.059921,20.8869105 L147.276886,15.4596396 L149.56936,15.4596396 L151.692022,20.8869105 Z M148.890108,22.8604636 L151.267489,22.8604636 C149.965584,26.4786623 148.748603,29.4389623 147.616512,31.7414523 L144.984412,31.7414523 C146.399526,28.9784642 147.701412,26.0181643 148.890108,22.8604636 Z M163.760013,24.2042642 L166.133241,24.2042642 C166.396934,25.8351632 166.792468,27.7595951 167.319855,29.9776177 L164.649973,29.9776177 C164.320356,28.2162468 164.023706,26.2918149 163.760013,24.2042642 Z M156.739212,24.2042642 L159.310209,24.2042642 C158.321359,26.2918149 157.266602,28.2162468 156.145905,29.9776177 L153.476023,29.9776177 C154.79449,28.0205389 155.882208,26.096107 156.739212,24.2042642 Z M159.310209,20.877247 L164.551089,20.877247 L164.847742,19.115885 L159.507978,19.115885 L159.310209,20.877247 Z M165.24328,15.8867212 C165.309204,15.6910133 165.243281,15.5931608 165.045511,15.5931608 L159.903516,15.5931608 L159.705747,17.158816 L165.144396,17.158816 L165.24328,15.8867212 Z M169.198661,11.5811695 L164.452204,11.5811695 C164.188511,12.298765 163.89186,12.9511148 163.562244,13.5382384 L166.33101,13.5382384 C167.12209,13.5382384 167.616508,13.6687084 167.814278,13.9296522 C168.012048,14.1905961 168.045009,14.7124759 167.913162,15.4953074 L166.825433,22.9321694 L163.067821,22.9321694 L161.881207,31.5432728 L157.431403,31.5432728 L156.936981,29.4883504 L159.507978,29.4883504 L160.496823,22.9321694 L156.442558,22.9321694 L157.728057,13.5382384 L160.793477,13.5382384 C161.123094,12.8858789 161.386783,12.2335291 161.584553,11.5811695 L156.541443,11.5811695 C156.211826,15.2996191 155.849253,18.3330456 155.453713,20.6815401 C154.860403,24.2042819 153.772684,27.8248232 152.190524,31.5432728 L149.223989,31.5432728 C151.069842,27.5638794 152.256444,23.8454856 152.783831,20.3879798 C153.047525,18.8875527 153.311214,17.0609733 153.574907,14.9081867 C153.838601,12.8206361 154.036368,10.9940566 154.168214,9.42839364 L169.495315,9.42839364 L169.198661,11.5811695 Z M192.298084,15.8867212 L191.507008,21.3665143 L196.846772,21.3665143 L196.451234,23.714997 L174.69664,23.714997 L175.092178,21.3665143 L180.333058,21.3665143 L181.124134,15.8867212 L176.970984,15.8867212 L177.267638,13.6360919 L181.420787,13.6360919 L182.014094,9.42839364 L184.98063,9.42839364 L184.387323,13.6360919 L189.628202,13.6360919 L190.221509,9.42839364 L193.188045,9.42839364 L192.594738,13.6360919 L196.846772,13.6360919 L196.451234,15.8867212 L192.298084,15.8867212 Z M184.090669,15.8867212 L183.299593,21.3665143 L188.540472,21.3665143 L189.331549,15.8867212 L184.090669,15.8867212 Z M173.411141,31.4454194 C174.663685,30.6625879 175.982132,29.6514457 177.366522,28.4119625 C178.750912,27.1724793 179.871592,26.0634846 180.728596,25.0849453 L184.387323,25.0849453 C183.332549,26.2591925 182.211869,27.4334221 181.025249,28.6076694 C179.772706,29.8471526 178.717948,30.7930598 177.860945,31.4454194 L173.411141,31.4454194 Z M187.452743,25.0849453 L190.518163,25.0849453 C191.111473,25.9330127 191.902541,26.9767724 192.891391,28.2162556 C193.880241,29.4557388 194.836115,30.532116 195.759042,31.4454194 L191.803661,31.4454194 C190.353348,29.5535766 188.903056,27.4334398 187.452743,25.0849453 Z M214.853395,11.1937095 L224.379334,11.1937095 L224.081649,13.2461175 L202.350599,13.2461175 L202.648285,11.1937095 L211.77731,11.1937095 L211.380396,9.05206638 L214.456481,9.05206638 L214.853395,11.1937095 Z M221.090833,19.8211537 L204.39247,19.8211537 L205.498988,14.0625045 L220.1855,14.0625045 C220.923182,14.0625045 221.42614,14.1622204 221.694388,14.3616551 C221.895574,14.6109486 221.929105,15.034741 221.79498,15.6330452 L221.090833,19.8211537 Z M207.812617,15.5582576 L207.309654,18.3254006 L218.777204,18.3254006 L219.078982,15.8574082 C219.146044,15.6579734 219.045452,15.5582576 218.777204,15.5582576 L207.812617,15.5582576 Z M219.649541,23.4214367 C218.133305,24.1390322 216.287479,24.791382 214.112008,25.3785056 L223.407153,25.3785056 L223.110499,27.433428 L213.617586,27.433428 L212.925394,31.9346866 L207.387861,31.9346866 L206.69567,29.9776177 L210.354397,29.9776177 L210.749935,27.433428 L201.158137,27.433428 L201.45479,25.3785056 L211.145473,25.3785056 L211.244357,24.3999711 C212.826518,24.0085554 214.276809,23.519293 215.595276,22.9321694 C215.6612,22.9321694 215.727122,22.8995519 215.793045,22.834316 L205.113517,22.834316 L204.52021,20.877247 L220.143964,20.877247 C220.605427,20.877247 220.836156,21.072952 220.836156,21.4643677 C220.770232,21.9210194 220.671349,22.2798118 220.539502,22.5407556 C220.407655,22.8669354 220.111005,23.1604928 219.649541,23.4214367 Z M238.200265,13.440385 L235.448482,13.440385 L233.740479,9.23268674 L236.302483,9.23268674 L238.200265,13.440385 Z M251.389844,9.52624708 C251.895922,9.52624708 252.243845,9.62409955 252.433624,9.81980743 C252.623403,10.0807513 252.686662,10.4721611 252.623402,10.9940488 L249.966508,31.6411263 L245.032277,31.6411263 L244.462943,29.390497 L247.594282,29.390497 L249.871619,12.3639971 C249.871619,12.1682892 249.83999,12.0052017 249.77673,11.8747298 C249.71347,11.8094939 249.523694,11.7768764 249.207396,11.7768764 L240.003157,11.7768764 L239.054266,9.52624708 L251.389844,9.52624708 Z M231.937587,12.559704 L234.309813,14.2232126 L231.842698,31.6411263 L229.185804,31.6411263 L231.937587,12.559704 Z M277.121476,14.7124798 C277.182885,14.451536 277.090773,14.321066 276.845138,14.321066 L264.409915,14.321066 L263.949351,18.6266177 L276.476687,18.6266177 L277.121476,14.7124798 Z" id="合并形状" fill="#3D3E49"></path>
                    <g>
                        <path d="M19.99118,19.569982 L19.99118,27.3977859 L7.99627907,27.3977859 C3.57994832,27.3977859 0,23.8932642 0,19.569982 C0,15.2466998 3.57994832,11.7417059 7.99627907,11.7417059 C12.4126098,11.7417059 15.9930405,15.2466998 15.9930405,19.569982 L19.99118,19.569982 Z" id="路径" fill="#86DBA2"></path>
                        <path d="M34.9843239,13.698893 C34.9843239,18.136915 32.8287339,22.0815087 29.4865805,24.5850083 L29.4865805,27.3977859 L20.9905943,27.3977859 C13.2620155,27.3977859 6.99686477,21.2646369 6.99686477,13.698893 C6.99686477,6.13314907 13.2620155,0 20.9905943,0 C28.7191731,0 34.9843239,6.13314907 34.9843239,13.698893 Z" id="路径" fill="#48C479"></path>
                        <path d="M19.4914729,16.6344375 C19.4914729,22.5788707 24.414104,27.3977859 30.4864772,27.3977859 C36.5588504,27.3977859 41.4814815,22.5788707 41.4814815,16.6344375 C41.4814815,10.6900043 36.5588504,5.87108904 30.4864772,5.87108904 C24.414104,5.87108904 19.4914729,10.6900043 19.4914729,16.6344375 Z" id="路径" fill="#00AA71"></path>
                        <path d="M10.4161929,31.5175585 L14.6246339,31.5175585 L14.6246339,38.9398776 L10.4161929,38.9398776 L10.4161929,31.5175585 Z M18.8335573,31.5175585 L23.0419983,31.5175585 L23.0419983,41 L18.8335573,41 L18.8335573,31.5175585 Z M27.2509216,31.5175585 L31.4593626,31.5175585 L31.4593626,38.9398776 L27.2509216,38.9398776 L27.2509216,31.5175585 Z" id="形状" fill="#3D3E49" fill-rule="nonzero"></path>
                    </g>
                </g>
            </g>
        </g>
    </g>
</svg>